<svg preserveAspectRatio="none" overflow="visible" style="display: block;" width="182.841" height="83" viewBox="0 0 182.841 83" fill="none" xmlns="http://www.w3.org/2000/svg">
<g id="Mayfield&#226;&#128;&#168;Park">
<path id="Vector" d="M132.751 83L126.658 65.0433V83H118.268V45.3813H126.658V63.2878L132.9 45.3813H141.69L134.349 63.037L142.089 83H132.751Z" fill="white"/>
<path id="Vector_2" d="M91.8102 83V45.3813H104.295C110.737 45.3813 115.331 48.792 115.331 55.1621V56.5666C115.331 61.2815 112.834 64.2408 109.039 65.5951L116.28 83H106.942L100.2 64.4916V83H91.8102ZM103.146 52.4034H100.2V62.0338H103.146C105.493 62.0338 106.942 60.6796 106.942 57.3189V56.5666C106.942 53.5069 105.493 52.4034 103.146 52.4034Z" fill="white"/>
<path id="Vector_3" d="M65.1046 83L70.9974 45.3813H84.1812L90.074 83H81.934L81.0351 76.2286H74.1935L73.2946 83H65.1046ZM75.1423 69.2065H80.0863L77.6393 50.7984L75.1423 69.2065Z" fill="white"/>
<path id="Vector_4" d="M42.7471 83V45.3813H54.4328C61.3244 45.3813 65.719 49.1933 65.719 56.4161V58.4224C65.719 65.6954 61.3244 69.708 54.4328 69.708H50.987V83H42.7471ZM54.0333 52.4034H50.987V62.6859H54.0333C56.4303 62.6859 57.8786 61.2815 57.8786 57.9208V56.9177C57.8786 53.6072 56.4303 52.4034 54.0333 52.4034Z" fill="white"/>
<path id="Vector_5" d="M170.606 0C178.196 0 182.841 4.2133 182.841 12.7904V24.8284C182.841 33.4054 178.196 37.6187 170.606 37.6187H158.87V0H170.606ZM170.606 30.3458C172.953 30.3458 174.351 29.0417 174.351 25.0792V12.5396C174.351 8.57707 172.953 7.27296 170.606 7.27296H167.36V30.3458H170.606Z" fill="white"/>
<path id="Vector_6" d="M156.893 30.3458V37.6187H138.215V0H146.705V30.3458H156.893Z" fill="white"/>
<path id="Vector_7" d="M116.537 37.6187V0H135.214V7.27296H124.927V14.7967H134.215V22.0697H124.927V30.3458H135.214V37.6187H116.537Z" fill="white"/>
<path id="Vector_8" d="M112.565 37.6187H104.076V0H112.565V37.6187Z" fill="white"/>
<path id="Vector_9" d="M83.4214 37.6187V0H101.599V7.27296H91.8111V15.7999H100.351V23.0728H91.8111V37.6187H83.4214Z" fill="white"/>
<path id="Vector_10" d="M74.1588 25.3299V37.6187H65.6692V25.3299L57.9287 0H66.0687L69.964 15.3484L73.8093 0H81.8993L74.1588 25.3299Z" fill="white"/>
<path id="Vector_11" d="M35.7199 37.6187L41.6126 0H54.7965L60.6893 37.6187H52.5492L51.6503 30.8474H44.8087L43.9098 37.6187H35.7199ZM45.7576 23.8252H50.7015L48.2545 5.4171L45.7576 23.8252Z" fill="white"/>
<path id="Vector_12" d="M26.4676 37.6187V4.66473L21.1741 37.6187H12.5846L7.24113 4.36377V37.6187H0V0H13.2338L16.9792 28.2893L20.6747 0H33.9584V37.6187H26.4676Z" fill="white"/>
</g>
</svg>
